<mxfile host="app.diagrams.net" modified="2022-06-11T13:12:28.244Z" agent="5.0 (Windows NT 10.0; Win64; x64) AppleWebKit/537.36 (KHTML, like Gecko) Chrome/101.0.4951.41 Safari/537.36" etag="qWi7QLsf1tDB4PlLMiFe" version="19.0.3" type="github">
  <diagram id="yjhfS7OTNhKbpJ8B5yDn" name="Page-1">
    <mxGraphModel dx="985" dy="610" grid="1" gridSize="10" guides="1" tooltips="1" connect="1" arrows="1" fold="1" page="1" pageScale="1" pageWidth="827" pageHeight="1169" math="0" shadow="0">
      <root>
        <mxCell id="0" />
        <mxCell id="1" parent="0" />
        <mxCell id="EA_ATJOtXwxGc28oPZ0w-1" value="浏览器,输入百度的域名 .com .cn .org .net&amp;nbsp;" style="rounded=1;whiteSpace=wrap;html=1;" vertex="1" parent="1">
          <mxGeometry x="300" y="390" width="230" height="60" as="geometry" />
        </mxCell>
        <mxCell id="EA_ATJOtXwxGc28oPZ0w-2" value="本地的DNS" style="shape=cylinder3;whiteSpace=wrap;html=1;boundedLbl=1;backgroundOutline=1;size=15;" vertex="1" parent="1">
          <mxGeometry x="354" y="210" width="60" height="80" as="geometry" />
        </mxCell>
        <mxCell id="EA_ATJOtXwxGc28oPZ0w-3" value="" style="endArrow=classic;html=1;rounded=0;entryX=0.195;entryY=1.002;entryDx=0;entryDy=0;entryPerimeter=0;" edge="1" parent="1" target="EA_ATJOtXwxGc28oPZ0w-2">
          <mxGeometry width="50" height="50" relative="1" as="geometry">
            <mxPoint x="359" y="390" as="sourcePoint" />
            <mxPoint x="409" y="340" as="targetPoint" />
          </mxGeometry>
        </mxCell>
        <mxCell id="EA_ATJOtXwxGc28oPZ0w-4" value="" style="endArrow=classic;html=1;rounded=0;entryX=0.611;entryY=0;entryDx=0;entryDy=0;entryPerimeter=0;" edge="1" parent="1" target="EA_ATJOtXwxGc28oPZ0w-1">
          <mxGeometry width="50" height="50" relative="1" as="geometry">
            <mxPoint x="400" y="290" as="sourcePoint" />
            <mxPoint x="450" y="240" as="targetPoint" />
          </mxGeometry>
        </mxCell>
        <mxCell id="EA_ATJOtXwxGc28oPZ0w-5" value="根服务器" style="shape=cylinder3;whiteSpace=wrap;html=1;boundedLbl=1;backgroundOutline=1;size=15;" vertex="1" parent="1">
          <mxGeometry x="70" y="130" width="60" height="80" as="geometry" />
        </mxCell>
        <mxCell id="EA_ATJOtXwxGc28oPZ0w-6" value="" style="endArrow=classic;html=1;rounded=0;entryX=0.963;entryY=0.881;entryDx=0;entryDy=0;entryPerimeter=0;" edge="1" parent="1" target="EA_ATJOtXwxGc28oPZ0w-5">
          <mxGeometry width="50" height="50" relative="1" as="geometry">
            <mxPoint x="354" y="240" as="sourcePoint" />
            <mxPoint x="404" y="190" as="targetPoint" />
          </mxGeometry>
        </mxCell>
        <mxCell id="EA_ATJOtXwxGc28oPZ0w-7" value="google" style="text;html=1;strokeColor=none;fillColor=none;align=center;verticalAlign=middle;whiteSpace=wrap;rounded=0;" vertex="1" parent="1">
          <mxGeometry x="70" y="220" width="60" height="30" as="geometry" />
        </mxCell>
        <mxCell id="EA_ATJOtXwxGc28oPZ0w-8" value="域服务器" style="shape=cylinder3;whiteSpace=wrap;html=1;boundedLbl=1;backgroundOutline=1;size=15;" vertex="1" parent="1">
          <mxGeometry x="354" y="20" width="60" height="80" as="geometry" />
        </mxCell>
        <mxCell id="EA_ATJOtXwxGc28oPZ0w-9" value="" style="endArrow=classic;html=1;rounded=0;entryX=0.5;entryY=1;entryDx=0;entryDy=0;entryPerimeter=0;" edge="1" parent="1" target="EA_ATJOtXwxGc28oPZ0w-8">
          <mxGeometry width="50" height="50" relative="1" as="geometry">
            <mxPoint x="389" y="220" as="sourcePoint" />
            <mxPoint x="439" y="170" as="targetPoint" />
          </mxGeometry>
        </mxCell>
        <mxCell id="EA_ATJOtXwxGc28oPZ0w-10" value="子域名服务&lt;br&gt;baidu" style="shape=cylinder3;whiteSpace=wrap;html=1;boundedLbl=1;backgroundOutline=1;size=15;" vertex="1" parent="1">
          <mxGeometry x="600" y="130" width="70" height="80" as="geometry" />
        </mxCell>
        <mxCell id="EA_ATJOtXwxGc28oPZ0w-11" value="" style="endArrow=classic;html=1;rounded=0;entryX=0;entryY=0;entryDx=0;entryDy=52.5;entryPerimeter=0;" edge="1" parent="1" target="EA_ATJOtXwxGc28oPZ0w-10">
          <mxGeometry width="50" height="50" relative="1" as="geometry">
            <mxPoint x="414" y="240" as="sourcePoint" />
            <mxPoint x="464" y="190" as="targetPoint" />
          </mxGeometry>
        </mxCell>
        <mxCell id="EA_ATJOtXwxGc28oPZ0w-12" value="" style="endArrow=classic;html=1;rounded=0;" edge="1" parent="1">
          <mxGeometry width="50" height="50" relative="1" as="geometry">
            <mxPoint x="600" y="200" as="sourcePoint" />
            <mxPoint x="420" y="260" as="targetPoint" />
          </mxGeometry>
        </mxCell>
      </root>
    </mxGraphModel>
  </diagram>
</mxfile>
